# xmcd CD Database Entry
#
# Track frame offsets:
# 150
# 17890
# 43071
# 61238
# 79936
# 98058
# 119987
# 140846
# 159754
# 179912
#
# Disc length: 2646 seconds
#
# Revision: 2
# Processed by: cddbd v1.4PL0 Copyright (c) Steve Scherf et al.
# Submitted via: tcd 2.0b
#
DISCID=900a540a
DTITLE=Lene Marlin - Playing my game
DYEAR=1900
DGENRE=
TTITLE0=Sitting down here
TTITLE1=Playing my game
TTITLE2=Unforgivable sinner
TTITLE3=Flown away
TTITLE4=The way we are
TTITLE5=So i see
TTITLE6=Maybe I'll go
TTITLE7=Where I'm headed
TTITLE8=One year ago
TTITLE9=A place nearby
EXTD=
EXTT0=
EXTT1=
EXTT2=
EXTT3=
EXTT4=
EXTT5=
EXTT6=
EXTT7=
EXTT8=
EXTT9=
PLAYORDER=
